<svg width="44" height="44" viewBox="0 0 44 44" xmlns="http://www.w3.org/2000/svg">
  <!-- White circle with red outline -->
  <circle cx="22" cy="22" r="20" fill="white" stroke="#ff0000" stroke-width="2"/>
  
  <!-- Orange speaker icon -->
  <path d="M16 14h2l4-4v20l-4-4h-2c-1.1 0-2-.9-2-2v-8c0-1.1.9-2 2-2z" fill="#ff8c00"/>
  <path d="M20 18c1.66 0 3 1.34 3 3s-1.34 3-3 3v-6z" fill="#ff8c00"/>
  
  <!-- Red X overlay -->
  <path d="M28 16l-2-2-4 4-4-4-2 2 4 4-4 4 2 2 4-4 4 4 2-2-4-4 4-4z" fill="#ff0000"/>
</svg>
