<svg width="44" height="44" viewBox="0 0 44 44" xmlns="http://www.w3.org/2000/svg">
  <!-- White circle with red outline -->
  <circle cx="22" cy="22" r="20" fill="white" stroke="#ff0000" stroke-width="2"/>
  
  <!-- Light blue gear -->
  <path d="M22 14c-4.4 0-8 3.6-8 8s3.6 8 8 8 8-3.6 8-8-3.6-8-8-8zm0 12c-2.2 0-4-1.8-4-4s1.8-4 4-4 4 1.8 4 4-1.8 4-4 4z" fill="#87ceeb"/>
  <path d="M22 12l1.5 2.6c.8.3 1.5.7 2.1 1.3l2.6-1.5 1 1.7-2.6 1.5c.1.7.1 1.4 0 2.1l2.6 1.5-1 1.7-2.6-1.5c-.6.6-1.3 1-2.1 1.3L22 30l-1.5-2.6c-.8-.3-1.5-.7-2.1-1.3l-2.6 1.5-1-1.7 2.6-1.5c-.1-.7-.1-1.4 0-2.1l-2.6-1.5 1-1.7 2.6 1.5c.6-.6 1.3-1 2.1-1.3L22 12z" fill="#87ceeb"/>
</svg>
